<svg xmlns="http://www.w3.org/2000/svg" viewBox="0 0 1080 186.49">
  <g>
  <path d=" M 4.372 111.543 C 4.372 148.89 30.514 179.017 67.862 179.017 C 85.29 179.017 100.229 171.299 109.69 160.841 L 110.188 160.841 L 110.188 175.282 L 153.76 175.282 L 153.76 47.555 L 109.69 47.555 L 109.69 59.755 C 99.233 49.547 85.041 43.821 67.862 43.821 C 30.514 43.821 4.372 74.196 4.372 111.543 Z  M 51.18 111.543 C 51.18 93.866 64.376 81.417 81.058 81.417 C 97.49 81.417 110.686 93.866 110.686 111.543 C 110.686 128.972 98.237 141.421 81.058 141.421 C 63.131 141.421 51.18 128.972 51.18 111.543 Z  M 183.637 175.282 L 227.707 175.282 L 227.707 103.078 C 227.707 90.38 240.654 78.18 253.85 78.18 C 268.042 78.18 276.756 90.38 276.756 103.078 L 276.756 175.282 L 320.826 175.282 L 320.826 91.127 C 320.826 55.523 288.209 43.821 264.805 43.821 C 250.862 43.821 238.164 51.041 228.205 61 L 227.707 61 L 227.707 47.555 L 183.637 47.555 L 183.637 175.282 Z  M 355.683 47.555 L 337.258 47.555 L 337.258 81.168 L 355.683 81.168 L 355.683 130.217 C 355.683 152.874 364.148 179.017 399.255 179.017 C 417.43 179.017 431.622 171.05 431.622 171.05 L 420.667 135.445 C 420.667 135.445 415.438 139.429 409.712 139.429 C 402.74 139.429 399.753 133.703 399.753 121.751 L 399.753 81.168 L 426.642 81.168 L 426.642 47.555 L 399.753 47.555 L 399.753 0 L 355.683 0 L 355.683 47.555 Z  M 437.349 111.543 C 437.349 148.89 463.492 179.017 500.839 179.017 C 518.267 179.017 533.206 171.299 542.667 160.841 L 543.165 160.841 L 543.165 175.282 L 586.737 175.282 L 586.737 47.555 L 542.667 47.555 L 542.667 59.755 C 532.21 49.547 518.018 43.821 500.839 43.821 C 463.492 43.821 437.349 74.196 437.349 111.543 Z  M 484.157 111.543 C 484.157 93.866 497.353 81.417 514.035 81.417 C 530.467 81.417 543.663 93.866 543.663 111.543 C 543.663 128.972 531.214 141.421 514.035 141.421 C 496.108 141.421 484.157 128.972 484.157 111.543 Z  M 616.615 175.282 L 660.684 175.282 L 660.684 108.058 C 660.684 104.821 663.921 82.164 686.827 82.164 C 701.517 82.164 709.733 89.135 709.733 89.135 L 728.158 51.788 C 728.158 51.788 716.705 43.821 700.272 43.821 C 675.125 43.821 661.182 65.98 661.182 65.98 L 660.684 65.98 L 660.684 47.555 L 616.615 47.555 L 616.615 175.282 Z  M 869.828 117.519 C 870.077 116.025 870.077 113.286 870.077 111.543 C 870.077 66.727 840.448 43.821 801.607 43.821 C 763.015 43.821 731.395 74.196 731.395 111.543 C 731.395 148.641 763.015 179.017 801.607 179.017 C 829.991 179.017 853.395 169.805 867.836 145.654 L 835.966 129.719 C 825.26 141.172 819.036 143.911 804.844 143.911 C 793.64 143.911 777.207 137.188 777.207 117.519 L 869.828 117.519 Z  M 778.452 93.119 C 779.199 81.417 787.664 72.453 802.852 72.453 C 815.799 72.453 825.011 79.674 827.003 93.119 L 778.452 93.119 Z  M 946.265 43.821 C 912.652 43.821 890.493 58.759 890.493 84.902 C 890.493 104.074 903.44 113.037 916.387 119.76 C 930.828 127.229 944.771 127.976 944.771 137.188 C 944.771 145.654 937.301 146.401 931.077 146.401 C 916.885 146.401 899.456 131.711 899.456 131.711 L 881.53 161.837 C 881.53 161.837 899.954 179.017 930.828 179.017 C 956.971 179.017 991.33 173.041 991.33 135.445 C 991.33 109.302 969.42 99.841 952.489 94.613 C 941.534 91.127 932.571 89.135 932.571 82.413 C 932.571 76.437 936.555 74.694 946.265 74.694 C 959.71 74.694 974.649 82.662 974.649 82.662 L 989.089 53.78 C 989.089 53.78 970.914 43.821 946.265 43.821 Z " fill-rule="evenodd" style="fill: #ffffff"></path>
  <g>
    <circle vector-effect="non-scaling-stroke" cx="1049.3427113693467" cy="67.34710574692724" r="29.877660561391394" fill="rgb(255,221,0)"></circle>
    <path d=" M 1019.465 142.041 C 984.608 120.507 1032.853 112.164 1049.343 112.164 C 1065.833 112.164 1081.976 125.783 1079.22 142.041 Q 1075.486 164.078 1039.383 186.486 Q 1045.531 158.145 1019.465 142.041 Z " fill="rgb(255,221,0)"></path>
    </g>
  </g>
</svg>