<svg width="138" height="135" viewBox="0 0 138 135" fill="none" xmlns="http://www.w3.org/2000/svg">
<path d="M66.3982 2.61557C29.7323 3.89598 1.03808 34.661 2.31868 71.3324C3.34313 100.669 23.2374 124.893 49.926 132.752C53.2658 133.251 54.4123 131.153 54.3511 129.399C54.2958 127.816 54.0516 122.588 53.8292 117.04C35.4975 121.702 31.1858 109.987 31.1858 109.987C27.8974 102.418 23.4742 100.53 23.4742 100.53C17.306 96.6189 23.7874 96.4773 23.7874 96.4773C30.4712 96.7129 34.2046 102.964 34.2046 102.964C40.4811 112.908 49.9896 109.638 53.7193 107.809C54.1654 103.497 55.7839 100.508 57.6249 98.7832C42.8183 97.6193 27.1162 92.4673 26.2277 67.0254C25.9746 59.7762 28.3615 53.7625 32.4466 48.9643C31.6988 47.316 29.1902 40.642 32.4762 31.3703C32.4762 31.3703 37.9896 29.391 50.9781 37.5385C56.2232 35.8824 61.8775 34.9463 67.5194 34.7239C73.1631 34.5522 78.8734 35.0914 84.2311 36.3773C96.6042 27.3442 102.235 28.9343 102.235 28.9343C106.168 37.9539 104.13 44.7866 103.499 46.4831C107.919 50.9843 110.702 56.8175 110.955 64.0666C111.846 89.569 96.5086 95.7267 81.7807 97.8868C84.2342 99.8642 86.4974 103.831 86.7138 110.026C87.024 118.91 87.1967 126.063 87.2731 128.25C87.3348 130.017 88.6023 132.045 91.9452 131.276C118.006 121.565 136.138 96.0217 135.114 66.6951C133.833 30.0237 103.067 1.33506 66.3982 2.61557ZM28.1713 98.6514C28.0366 98.9864 27.521 99.1035 27.0403 98.8935C26.5512 98.6937 26.265 98.2534 26.4096 97.917C26.5406 97.5723 27.0574 97.4596 27.5459 97.6704C28.0361 97.8701 28.3268 98.3146 28.1713 98.6514ZM31.5391 101.452C31.2327 101.756 30.6089 101.642 30.1727 101.192C29.7222 100.744 29.6192 100.128 29.9299 99.8191C30.2462 99.5141 30.8513 99.6306 31.3029 100.078C31.7536 100.532 31.8597 101.143 31.5391 101.452ZM33.9099 105.102C33.513 105.399 32.8385 105.157 32.4067 104.581C31.9792 104.005 31.9545 103.297 32.3602 102.999C32.7626 102.7 33.4269 102.933 33.864 103.504C34.2907 104.09 34.3155 104.798 33.9099 105.102ZM37.8501 109.288C37.5002 109.702 36.7213 109.621 36.1348 109.094C35.5356 108.579 35.3474 107.824 35.6984 107.41C36.0527 106.995 36.8362 107.081 37.4269 107.604C38.0218 108.119 38.2244 108.878 37.8501 109.288ZM42.7985 110.575C42.6561 111.101 41.9178 111.363 41.158 111.168C40.3991 110.967 39.8863 110.375 40.0197 109.844C40.1575 109.315 40.8988 109.043 41.6646 109.253C42.4224 109.453 42.9361 110.041 42.7985 110.575ZM48.3935 110.999C48.4313 111.546 47.8095 112.022 47.0204 112.059C46.2271 112.105 45.5695 111.684 45.5419 111.146C45.5226 110.593 46.1303 110.121 46.9237 110.08C47.7127 110.037 48.3745 110.454 48.3935 110.999ZM53.8615 110.598C53.9747 111.129 53.4452 111.696 52.6664 111.87C51.9005 112.038 51.1754 111.733 51.0591 111.206C50.9443 110.662 51.4837 110.094 52.2484 109.925C53.0287 109.761 53.7425 110.058 53.8615 110.598Z" fill="url(#paint0_linear)"/>
<defs>
<linearGradient id="paint0_linear" x1="0" y1="4.93425" x2="137.324" y2="129.98" gradientUnits="userSpaceOnUse">
<stop stop-color="#FF004D"/>
<stop offset="1" stop-color="#EB00FF"/>
</linearGradient>
</defs>
</svg>
