<svg width="102" height="102" viewBox="0 0 102 102" fill="none" xmlns="http://www.w3.org/2000/svg">
<path d="M67.1128 50.1918C66.9551 45.6786 65.2239 41.881 61.919 38.7992C58.6142 35.7173 54.7051 34.2552 50.1918 34.4128C45.6786 34.5704 41.881 36.3017 38.7992 39.6065C35.7173 42.9114 34.2552 46.8205 34.4128 51.3337C34.5704 55.847 36.3017 59.6446 39.6065 62.7264C42.9114 65.8082 46.8205 67.2704 51.3337 67.1128C55.847 66.9551 59.6446 65.2239 62.7264 61.919C65.8082 58.6142 67.2704 54.7051 67.1128 50.1918ZM75.9264 49.884C76.1703 56.8668 73.9294 62.892 69.204 67.9595C64.4785 73.0269 58.6243 75.6826 51.6415 75.9264C44.6587 76.1703 38.6336 73.9294 33.5661 69.204C28.4987 64.4785 25.843 58.6243 25.5991 51.6415C25.3553 44.6587 27.5961 38.6336 32.3216 33.5661C37.0471 28.4987 42.9012 25.843 49.884 25.5991C56.8668 25.3553 62.892 27.5961 67.9595 32.3216C73.0269 37.0471 75.6826 42.9012 75.9264 49.884ZM81.9096 23.4577C81.9661 25.0756 81.4397 26.4795 80.3302 27.6693C79.2207 28.859 77.857 29.4821 76.2391 29.5386C74.6211 29.5951 73.2172 29.0687 72.0275 27.9592C70.8377 26.8497 70.2146 25.486 70.1581 23.868C70.1016 22.2501 70.6281 20.8462 71.7375 19.6565C72.847 18.4667 74.2107 17.8436 75.8287 17.7871C77.4467 17.7306 78.8505 18.2571 80.0403 19.3665C81.23 20.476 81.8531 21.8397 81.9096 23.4577ZM49.3577 10.5265C49.0597 10.5369 47.4307 10.5832 44.4708 10.6652C41.5108 10.7472 39.2648 10.8257 37.7328 10.9005C36.2007 10.9753 34.1485 11.1109 31.5763 11.3073C29.004 11.5037 26.8187 11.7932 25.0203 12.1757C23.2219 12.5582 21.7135 13.0052 20.495 13.5167C18.3959 14.4426 16.5656 15.7428 15.0041 17.4173C13.4426 19.0917 12.2733 21.0083 11.4961 23.1669C11.0708 24.4181 10.7301 25.954 10.474 27.7747C10.2179 29.5954 10.0815 31.7956 10.0651 34.3753C10.0486 36.955 10.0564 39.0116 10.0887 40.5452C10.1209 42.0787 10.1993 44.3247 10.324 47.2831C10.4486 50.2416 10.5161 51.8698 10.5265 52.1679C10.5369 52.4659 10.5832 54.0949 10.6652 57.0548C10.7472 60.0147 10.8257 62.2607 10.9005 63.7928C10.9753 65.3249 11.1109 67.377 11.3073 69.9493C11.5037 72.5215 11.7932 74.7069 12.1757 76.5053C12.5582 78.3037 13.0052 79.8121 13.5167 81.0305C14.4426 83.1297 15.7428 84.96 17.4173 86.5215C19.0917 88.0829 21.0083 89.2523 23.1669 90.0295C24.4181 90.4547 25.954 90.7954 27.7747 91.0516C29.5954 91.3077 31.7956 91.444 34.3753 91.4605C36.955 91.477 39.0116 91.4691 40.5452 91.4369C42.0787 91.4047 44.3247 91.3262 47.2831 91.2016C50.2416 91.077 51.8698 91.0095 52.1679 90.999C52.4659 90.9886 54.0949 90.9424 57.0548 90.8604C60.0147 90.7783 62.2607 90.6999 63.7928 90.6251C65.3249 90.5502 67.377 90.4146 69.9493 90.2182C72.5215 90.0218 74.7069 89.7324 76.5053 89.3498C78.3037 88.9673 79.8121 88.5203 81.0305 88.0088C83.1297 87.0829 84.96 85.7828 86.5215 84.1083C88.0829 82.4338 89.2523 80.5173 90.0295 78.3586C90.4547 77.1075 90.7954 75.5716 91.0516 73.7509C91.3077 71.9302 91.444 69.7299 91.4605 67.1503C91.477 64.5706 91.4691 62.5139 91.4369 60.9804C91.4047 59.4468 91.3262 57.2008 91.2016 54.2424C91.077 51.284 91.0095 49.6557 90.999 49.3577C90.9886 49.0597 90.9424 47.4307 90.8604 44.4708C90.7783 41.5108 90.6999 39.2648 90.6251 37.7328C90.5502 36.2007 90.4146 34.1485 90.2182 31.5763C90.0218 29.004 89.7324 26.8187 89.3498 25.0203C88.9673 23.2219 88.5203 21.7135 88.0088 20.4951C87.0829 18.3959 85.7828 16.5656 84.1083 15.0041C82.4338 13.4426 80.5173 12.2733 78.3586 11.4961C77.1075 11.0708 75.5716 10.7301 73.7509 10.474C71.9302 10.2179 69.7299 10.0815 67.1503 10.0651C64.5706 10.0486 62.5139 10.0564 60.9804 10.0887C59.4468 10.1209 57.2008 10.1993 54.2424 10.324C51.284 10.4486 49.6557 10.5161 49.3577 10.5265ZM99.8127 49.0499C100.153 58.8003 100.282 65.5526 100.2 69.3069C100.084 78.178 97.6834 85.1253 92.999 90.1487C88.3146 95.1721 81.5517 98.0513 72.7104 98.7864C68.9709 99.1301 62.226 99.4722 52.4756 99.8127C42.7253 100.153 35.9729 100.282 32.2186 100.2C23.3475 100.084 16.4003 97.6834 11.3769 92.999C6.35347 88.3146 3.47424 81.5517 2.7392 72.7104C2.39546 68.9709 2.05335 62.226 1.71286 52.4756C1.37237 42.7253 1.24315 35.9729 1.3252 32.2186C1.44171 23.3475 3.84216 16.4003 8.52656 11.3769C13.211 6.35347 19.9738 3.47424 28.8152 2.7392C32.5546 2.39546 39.2995 2.05335 49.0499 1.71286C58.8003 1.37237 65.5526 1.24315 69.3069 1.3252C78.178 1.44171 85.1253 3.84216 90.1487 8.52656C95.1721 13.211 98.0513 19.9738 98.7864 28.8152C99.1301 32.5546 99.4722 39.2995 99.8127 49.0499Z" fill="url(#paint0_linear)"/>
<defs>
<linearGradient id="paint0_linear" x1="2.50575e-06" y1="-1.5435e-06" x2="102" y2="102" gradientUnits="userSpaceOnUse">
<stop stop-color="#FF004D"/>
<stop offset="1" stop-color="#EB00FF"/>
</linearGradient>
</defs>
</svg>
